<svg xmlns="http://www.w3.org/2000/svg" id="prefix__Group_3888" width="36" height="36" data-name="Group 3888" viewBox="0 0 36 36">
    <defs>
        <style>
            .prefix__cls-2,.prefix__cls-3,.prefix__cls-6{fill:none}.prefix__cls-2{stroke:#000}.prefix__cls-4{fill:#ebb349}.prefix__cls-5,.prefix__cls-7{stroke:none}
        </style>
    </defs>
    <rect id="prefix__Rectangle_374" width="36" height="36" data-name="Rectangle 374" rx="4" style="fill:#fff;opacity:0"/>
    <g id="prefix__sport-team" transform="translate(8 7)">
        <g id="prefix__Ellipse_87" class="prefix__cls-2" data-name="Ellipse 87" transform="translate(7.917)">
            <circle cx="2.083" cy="2.083" r="2.083" class="prefix__cls-5"/>
            <circle cx="2.083" cy="2.083" r="1.583" class="prefix__cls-6"/>
        </g>
        <g id="prefix__Ellipse_88" class="prefix__cls-2" data-name="Ellipse 88" transform="translate(13.75 11.667)">
            <circle cx="2.083" cy="2.083" r="2.083" class="prefix__cls-5"/>
            <circle cx="2.083" cy="2.083" r="1.583" class="prefix__cls-6"/>
        </g>
        <g id="prefix__Ellipse_89" class="prefix__cls-2" data-name="Ellipse 89" transform="translate(2.083 11.667)">
            <circle cx="2.083" cy="2.083" r="2.083" class="prefix__cls-5"/>
            <circle cx="2.083" cy="2.083" r="1.583" class="prefix__cls-6"/>
        </g>
        <g id="prefix__Path_9746" class="prefix__cls-3" data-name="Path 9746">
            <path d="M14.708 9.333H7.625A.625.625 0 0 1 7 8.708v-.416A2.294 2.294 0 0 1 9.292 6h3.75a2.294 2.294 0 0 1 2.292 2.292v.417a.625.625 0 0 1-.626.624z" class="prefix__cls-5" transform="translate(-1.167 -1)"/>
            <path d="M14.333 8.333v-.041c0-.713-.58-1.292-1.291-1.292h-3.75C8.579 7 8 7.58 8 8.292v.041h6.333m.375 1H7.625c-.345 0-.625-.28-.625-.625v-.416C7 7.027 8.027 6 9.292 6h3.75c1.264 0 2.291 1.027 2.291 2.292v.416c0 .345-.28.625-.625.625z" class="prefix__cls-7" transform="translate(-1.167 -1)"/>
        </g>
        <g id="prefix__Path_9747" class="prefix__cls-3" data-name="Path 9747">
            <path d="M21.708 23.333h-7.083a.625.625 0 0 1-.625-.625v-.417A2.294 2.294 0 0 1 16.292 20h3.75a2.294 2.294 0 0 1 2.292 2.292v.417a.625.625 0 0 1-.626.624z" class="prefix__cls-5" transform="translate(-2.333 -3.333)"/>
            <path d="M21.333 22.333v-.041c0-.713-.58-1.292-1.291-1.292h-3.75c-.713 0-1.292.58-1.292 1.292v.041h6.333m.375 1h-7.083c-.345 0-.625-.28-.625-.625v-.416C14 21.027 15.027 20 16.292 20h3.75c1.264 0 2.291 1.027 2.291 2.292v.416c0 .345-.28.625-.625.625z" class="prefix__cls-7" transform="translate(-2.333 -3.333)"/>
        </g>
        <g id="prefix__Path_9748" class="prefix__cls-3" data-name="Path 9748">
            <path d="M7.708 23.333H.625A.625.625 0 0 1 0 22.708v-.417A2.294 2.294 0 0 1 2.292 20h3.75a2.294 2.294 0 0 1 2.292 2.292v.417a.625.625 0 0 1-.626.624z" class="prefix__cls-5" transform="translate(0 -3.333)"/>
            <path d="M7.333 22.333v-.041c0-.713-.58-1.292-1.291-1.292h-3.75C1.579 21 1 21.58 1 22.292v.041h6.333m.375 1H.625c-.345 0-.625-.28-.625-.625v-.416C0 21.027 1.027 20 2.292 20h3.75c1.264 0 2.291 1.027 2.291 2.292v.416c0 .345-.28.625-.625.625z" class="prefix__cls-7" transform="translate(0 -3.333)"/>
        </g>
        <g id="prefix__Path_9749" class="prefix__cls-4" data-name="Path 9749">
            <path d="M2.625 10.613c-.069 0-.125-.056-.125-.125 0-3.036 1.78-5.825 4.534-7.106.016-.008.035-.012.053-.012.039 0 .089.02.114.074.028.06 0 .135-.062.164-2.666 1.24-4.389 3.94-4.389 6.88 0 .07-.056.125-.125.125z" class="prefix__cls-5" transform="translate(-.333 -.478)"/>
            <path d="M2.625 11.113c-.345 0-.625-.28-.625-.625 0-3.23 1.893-6.197 4.823-7.56.086-.04.176-.058.264-.058.236 0 .46.134.567.362.144.312.01.684-.304.83-2.49 1.158-4.1 3.68-4.1 6.426 0 .345-.28.625-.625.625z" class="prefix__cls-7" transform="translate(-.333 -.478)"/>
        </g>
        <g id="prefix__Path_9750" class="prefix__cls-4" data-name="Path 9750">
            <path d="M20.233 10.613c-.07 0-.125-.056-.125-.125 0-2.94-1.723-5.64-4.39-6.88-.062-.029-.09-.104-.06-.167.025-.053.075-.072.114-.072.018 0 .036.004.054.012 2.752 1.281 4.532 4.071 4.532 7.107 0 .07-.056.125-.125.125z" class="prefix__cls-5" transform="translate(-2.524 -.478)"/>
            <path d="M20.233 11.113c-.345 0-.625-.28-.625-.625 0-2.746-1.61-5.268-4.1-6.426-.313-.146-.449-.518-.304-.831.107-.228.332-.362.568-.362.088 0 .178.019.263.058 2.93 1.364 4.823 4.331 4.823 7.561 0 .345-.28.625-.625.625z" class="prefix__cls-7" transform="translate(-2.524 -.478)"/>
        </g>
        <g id="prefix__Path_9751" class="prefix__cls-4" data-name="Path 9751">
            <path d="M11.714 21.253c-.268 0-.545-.015-.821-.043-.042-.004-.068-.027-.083-.045-.015-.019-.032-.05-.027-.092.006-.066.06-.111.13-.111h.012c.256.027.52.04.785.04.284 0 .569-.015.847-.046h.016c.061 0 .116.05.123.112.007.068-.043.13-.112.138-.29.03-.583.047-.87.047z" class="prefix__cls-5" transform="translate(-1.714 -3.409)"/>
            <path d="M11.714 21.753c-.295 0-.585-.016-.872-.045-.343-.036-.593-.344-.557-.687.034-.323.306-.56.628-.56.02 0 .04.001.059.003.242.026.49.038.738.038.266 0 .532-.014.793-.043.024-.003.047-.004.07-.004.313 0 .584.238.62.558.037.343-.21.651-.554.69-.303.032-.612.05-.925.05z" class="prefix__cls-7" transform="translate(-1.714 -3.409)"/>
        </g>
    </g>
</svg>
