<svg xmlns="http://www.w3.org/2000/svg" id="prefix__Group_3882" width="36" height="36" data-name="Group 3882" viewBox="0 0 36 36">
    <rect id="prefix__Rectangle_377" width="36" height="36" data-name="Rectangle 377" rx="4" style="fill:#fff;opacity:0"/>
    <g id="prefix__cash-flow" transform="translate(6.348 7.461)">
        <path id="prefix__Path_9733" d="M29.666 44.936v.727h.666V45H31v-1a1 1 0 0 0-1-1 .333.333 0 0 1-.333-.333v-.333H30a.333.333 0 0 1 .333.333V43H31v-.333a1 1 0 0 0-.666-.938V41h-.666v.666H29v1a1 1 0 0 0 1 1 .333.333 0 0 1 .333.333v.333H30a.333.333 0 0 1-.334-.332v-.333H29V44a1 1 0 0 0 .666.936z" data-name="Path 9733" transform="translate(-18.674 -27.121)"/>
        <path id="prefix__Path_9734" d="M20.985 11.659h-6.162l2.5-3.331h-1.334V5h-2.665v3.328h-1.332l2.5 3.331h-2.833V6c0-.951-2.5-1-3-1-.167 0-.556.006-1 .048V2c0-.951-2.5-1-3-1s-3 .048-3 1v9.659a.667.667 0 0 0-.659.666v8.66a.667.667 0 0 0 .666.666h19.319a.667.667 0 0 0 .666-.666v-8.66a.667.667 0 0 0-.666-.666zM13.99 8.994V5.663h1.332v3.331h.666l-1.332 1.776-1.332-1.776zm-7.661 2.665v-.986a7.756 7.756 0 0 0 2.332.32 7.756 7.756 0 0 0 2.332-.32v.986zm-4-2.984a7.756 7.756 0 0 0 2.332.32c.343 0 .681-.017 1-.048v1.33a9.686 9.686 0 0 1-1 .05 4.809 4.809 0 0 1-2.332-.394zm0-2A7.756 7.756 0 0 0 4.664 7c.343 0 .681-.017 1-.048v1.33a9.686 9.686 0 0 1-1 .05 4.809 4.809 0 0 1-2.332-.394zm8.66 1.258a4.809 4.809 0 0 1-2.332.394 4.809 4.809 0 0 1-2.332-.394V6.676A7.756 7.756 0 0 0 8.661 7a7.756 7.756 0 0 0 2.332-.32zm0 2a4.809 4.809 0 0 1-2.332.394 4.809 4.809 0 0 1-2.332-.394V8.674a7.756 7.756 0 0 0 2.332.32 7.756 7.756 0 0 0 2.332-.32zM10.9 6a5.819 5.819 0 0 1-2.241.333A5.821 5.821 0 0 1 6.42 6a5.819 5.819 0 0 1 2.241-.333A5.821 5.821 0 0 1 10.9 6zM5.663 6v.282a9.591 9.591 0 0 1-1 .051 4.809 4.809 0 0 1-2.332-.394V4.677A7.756 7.756 0 0 0 4.664 5 7.756 7.756 0 0 0 7 4.677v.459c-.7.13-1.332.379-1.332.86zM2.332 2.679A7.756 7.756 0 0 0 4.664 3 7.756 7.756 0 0 0 7 2.679v1.258a4.809 4.809 0 0 1-2.332.394 4.809 4.809 0 0 1-2.332-.394zm2.332-1.013A5.821 5.821 0 0 1 6.9 2a5.821 5.821 0 0 1-2.241.333A5.821 5.821 0 0 1 2.423 2a5.821 5.821 0 0 1 2.241-.334zm-2.332 9.007a7.756 7.756 0 0 0 2.332.32c.343 0 .681-.017 1-.048v.714H2.332zm-.666 10.312v-8.66h19.319v8.66z" data-name="Path 9734" transform="translate(0 -.445)"/>
        <path id="prefix__Path_9735" d="M5 37v7.328h17.987V37zm1.965.666a1.671 1.671 0 0 1-1.3 1.3v-1.3zm-1.3 4.7a1.671 1.671 0 0 1 1.3 1.3h-1.3zm1.972 1.3a2.333 2.333 0 0 0-1.971-1.976v-2.052a2.333 2.333 0 0 0 1.972-1.972h4.255a3.655 3.655 0 0 0 0 6zm6.355-6a3 3 0 1 1-3 3 3 3 0 0 1 3.001-3zm7.028 6a1.671 1.671 0 0 1 1.3-1.3v1.3zm1.3-4.7a1.671 1.671 0 0 1-1.3-1.3h1.3zm-1.972-1.3a2.333 2.333 0 0 0 1.972 1.972v2.052a2.333 2.333 0 0 0-1.972 1.972h-4.255a3.655 3.655 0 0 0 0-6z" data-name="Path 9735" transform="translate(-2.668 -24.454)"/>
        <path id="prefix__Path_9736" d="M48.332 7.217H51V3.886h1.332L49.665.333 47 3.886h1.332zm1.332-5.773L51 3.22h-.666v3.331H49V3.22h-.666z" data-name="Path 9736" transform="translate(-30.678)"/>
    </g>
</svg>
