<svg xmlns="http://www.w3.org/2000/svg" id="prefix__Component_6_6" width="140" height="140" data-name="Component 6 – 6" viewBox="0 0 140 140">
    <defs>
        <style>
            .prefix__cls-2{fill:#fff}
        </style>
    </defs>
    <path id="prefix__Rectangle_342" d="M0 0H140V140H0z" data-name="Rectangle 342" style="fill:#2489ff"/>
    <g id="prefix__speed" transform="rotate(90 35.383 70.383)">
        <g id="prefix__Group_3401" data-name="Group 3401" transform="translate(3.179 26.285)">
            <g id="prefix__Group_3400" data-name="Group 3400">
                <path id="prefix__Path_7642" d="M42.308 191.455a1.177 1.177 0 0 0-.972-.64l-9.921-.662a1.158 1.158 0 0 0-1.177.746l-7.152 18.279a1.179 1.179 0 0 0 1.805 1.373l5.936-4.452 3.456.691a1.179 1.179 0 0 0 1.333-.736 76.634 76.634 0 0 1 6.639-13.436 1.179 1.179 0 0 0 .053-1.163zm-8.533 12.828l-3-.6a1.188 1.188 0 0 0-.939.213l-3.041 2.281 5.327-13.613 7.12.474a79.643 79.643 0 0 0-5.467 11.245z" class="prefix__cls-2" data-name="Path 7642" transform="translate(-23.005 -190.148)"/>
            </g>
        </g>
        <g id="prefix__Group_3403" data-name="Group 3403" transform="translate(23.842 48.154)">
            <g id="prefix__Group_3402" data-name="Group 3402">
                <path id="prefix__Path_7643" d="M193.15 359.411l-.662-9.922a1.18 1.18 0 0 0-1.8-.921 76.678 76.678 0 0 1-13.436 6.639 1.177 1.177 0 0 0-.736 1.333l.684 3.46-4.452 5.935a1.18 1.18 0 0 0 .943 1.888 1.247 1.247 0 0 0 .43-.079l18.279-7.152a1.179 1.179 0 0 0 .75-1.181zm-16.025 4.619l2.281-3.041a1.18 1.18 0 0 0 .212-.939l-.6-3a79.578 79.578 0 0 0 11.245-5.465l.475 7.119z" class="prefix__cls-2" data-name="Path 7643" transform="translate(-172.515 -348.387)"/>
            </g>
        </g>
        <g id="prefix__Group_3405" data-name="Group 3405" transform="translate(15.1 35.387)">
            <g id="prefix__Group_3404" data-name="Group 3404">
                <path id="prefix__Path_7644" d="M128.361 256.007h-7.946a1.181 1.181 0 0 0-1.031.606l-9.973 17.92a1.179 1.179 0 0 0 1.031 1.752 1.164 1.164 0 0 0 .61-.171l17.92-10.844a1.178 1.178 0 0 0 .568-1.008v-7.076a1.18 1.18 0 0 0-1.179-1.179zm-1.179 7.591l-13.549 8.2 7.474-13.431h6.074z" class="prefix__cls-2" data-name="Path 7644" transform="translate(-109.263 -256.007)"/>
            </g>
        </g>
        <g id="prefix__Group_3407" data-name="Group 3407" transform="translate(13.511 .023)">
            <g id="prefix__Group_3406" data-name="Group 3406">
                <path id="prefix__Path_7645" d="M154.951 1.242a1.181 1.181 0 0 0-1.078-1.078c-.392-.031-39.226-2.742-56.035 41.285a1.178 1.178 0 0 0 .268 1.255l5.607 5.607a1.179 1.179 0 0 0 1.867-.265l5.618-10.2h6.071v5.246l-10.262 6.479a1.179 1.179 0 0 0-.2 1.831l5.607 5.607a1.178 1.178 0 0 0 .834.346 1.162 1.162 0 0 0 .421-.078c44.025-16.81 41.315-55.644 41.282-56.035zm-6.186 20.923c-4.138 10.235-13.608 24.157-35.23 32.635l-4.021-4.021 9.564-6.038a1.182 1.182 0 0 0 .549-1v-7.074a1.18 1.18 0 0 0-1.179-1.179H110.5a1.18 1.18 0 0 0-1.033.611l-5.2 9.436-3.954-3.955C115.072 3.936 146.525 2.4 152.64 2.482a52.264 52.264 0 0 1-3.875 19.683z" class="prefix__cls-2" data-name="Path 7645" transform="translate(-97.761 -.123)"/>
            </g>
        </g>
        <g id="prefix__Group_3409" data-name="Group 3409" transform="translate(0 49.099)">
            <g id="prefix__Group_3408" data-name="Group 3408">
                <path id="prefix__Path_7646" d="M20.2 358.217a1.176 1.176 0 0 0-1.064-.462 1.18 1.18 0 0 0-.462-1.064 7.376 7.376 0 0 0-6.3-1.228 7.932 7.932 0 0 0-5.3 4.422L.106 375.224a1.179 1.179 0 0 0 1.561 1.561l15.339-6.973a7.929 7.929 0 0 0 4.421-5.3 7.373 7.373 0 0 0-1.227-6.295zm-1.059 5.718a5.586 5.586 0 0 1-3.111 3.731l-12.476 5.671 5.671-12.477a5.583 5.583 0 0 1 3.731-3.111 5.336 5.336 0 0 1 1.311-.165 4.976 4.976 0 0 1 2.107.462l-1.123 1.987a1.18 1.18 0 0 0 1.607 1.607l1.987-1.124a5.111 5.111 0 0 1 .297 3.419z" class="prefix__cls-2" data-name="Path 7646" transform="translate(0 -355.225)"/>
            </g>
        </g>
        <g id="prefix__Group_3411" data-name="Group 3411" transform="translate(44.689 .006)">
            <g id="prefix__Group_3410" data-name="Group 3410">
                <path id="prefix__Path_7647" d="M349.371 1.143a1.181 1.181 0 0 0-1.078-1.077 52.669 52.669 0 0 0-24.248 5.058 1.179 1.179 0 0 0-.341 1.9l18.7 18.7a1.179 1.179 0 0 0 .834.346 1.252 1.252 0 0 0 .209-.018 1.18 1.18 0 0 0 .863-.668 52.636 52.636 0 0 0 5.061-24.241zm-6.512 21.7L326.59 6.576a52.476 52.476 0 0 1 20.471-4.2 52.341 52.341 0 0 1-4.202 20.469z" class="prefix__cls-2" data-name="Path 7647" transform="translate(-323.359 -.006)"/>
            </g>
        </g>
        <g id="prefix__Group_3413" data-name="Group 3413" transform="translate(34.723 15.71)">
            <g id="prefix__Group_3412" data-name="Group 3412">
                <path id="prefix__Path_7648" d="M268.6 116.61a10.166 10.166 0 1 0 0 14.383 10.181 10.181 0 0 0 0-14.383zm-1.667 12.716a7.808 7.808 0 1 1 0-11.048 7.821 7.821 0 0 1 .002 11.048z" class="prefix__cls-2" data-name="Path 7648" transform="translate(-251.245 -113.636)"/>
            </g>
        </g>
        <g id="prefix__Group_3415" data-name="Group 3415" transform="translate(39.216 20.205)">
            <g id="prefix__Group_3414" data-name="Group 3414">
                <path id="prefix__Path_7649" d="M291.774 154.173a3.316 3.316 0 1 1 0-4.69 1.179 1.179 0 0 0 1.667-1.667 5.672 5.672 0 1 0 0 8.025 1.179 1.179 0 0 0-1.667-1.667z" class="prefix__cls-2" data-name="Path 7649" transform="translate(-283.757 -146.157)"/>
            </g>
        </g>
    </g>
</svg>
