<svg xmlns="http://www.w3.org/2000/svg" id="prefix__Group_3884" width="36" height="36" data-name="Group 3884" viewBox="0 0 36 36">
    <rect id="prefix__Rectangle_381" width="36" height="36" data-name="Rectangle 381" rx="4" style="fill:#fff;opacity:0"/>
    <g id="prefix___598826" data-name="598826" transform="translate(7.475 7.475)">
        <g id="prefix__Group_3869" data-name="Group 3869">
            <g id="prefix__Group_3868" data-name="Group 3868">
                <path id="prefix__Path_9729" d="M19.6 10.211a9.527 9.527 0 0 0-7.733-8.022 1.688 1.688 0 0 0-3.357 0 9.406 9.406 0 0 0-1.04.251V0H0v5.432h.679v6.112a9.506 9.506 0 0 0 18.794 2.025 1.689 1.689 0 0 0 .124-3.358zm-9.414-8.853a1.017 1.017 0 0 1 .971.728 9.125 9.125 0 0 0-1.944.005 1.017 1.017 0 0 1 .973-.733zM7.47 4.94a10.5 10.5 0 0 1 2.037-.187c2.837 0 5.772 1.905 5.772 5.093a5.075 5.075 0 0 1-1.492 3.6 4.072 4.072 0 0 0-7-4.147V5.432h.683zm3.056 3.887v-.661a3.379 3.379 0 0 1 1.808.751l-1.462 1.462a1.358 1.358 0 0 0-.346-.144v-.728h-.68v.727a1.329 1.329 0 0 0-.346.144L8.039 8.917a3.379 3.379 0 0 1 1.808-.751v.662zM9.02 10.858a1.358 1.358 0 0 0-.144.346H6.808A3.377 3.377 0 0 1 7.559 9.4zm-.144 1.025a1.329 1.329 0 0 0 .144.346l-1.461 1.462a3.379 3.379 0 0 1-.751-1.808zm.624.826a1.358 1.358 0 0 0 .346.144v2.068a3.379 3.379 0 0 1-1.808-.751zm.006-1.166a.679.679 0 1 1 .679.679.68.68 0 0 1-.678-.678zm1.019 1.31a1.329 1.329 0 0 0 .346-.144l1.462 1.462a3.38 3.38 0 0 1-1.8.75h-.007zm.826-.624a1.358 1.358 0 0 0 .144-.346h2.068a3.377 3.377 0 0 1-.751 1.808zM11.5 11.2a1.329 1.329 0 0 0-.144-.346L12.813 9.4a3.379 3.379 0 0 1 .751 1.808zM.679 2.037h4.753v-.679H.679V.679h6.112v.679h-.679v.679h.679v2.716H.679zm9.507 18.335a8.838 8.838 0 0 1-8.828-8.828V5.432h4.754v6.112A4.077 4.077 0 0 0 10.6 15.6a5.775 5.775 0 0 0 5.356-5.751c0-3.613-3.28-5.772-6.451-5.772a11.362 11.362 0 0 0-2.037.174v-1.1a8.826 8.826 0 1 1 2.716 17.223zm9.412-7.5a9.526 9.526 0 0 0 .094-1.325c0-.21-.009-.417-.023-.624a1.013 1.013 0 0 1-.072 1.949z" data-name="Path 9729"/>
                <rect id="prefix__Rectangle_387" height="1" data-name="Rectangle 387" transform="translate(2.525 5.525)"/>
                <rect id="prefix__Rectangle_390" height="1" data-name="Rectangle 390" transform="translate(12.525 15.525)"/>
            </g>
        </g>
    </g>
</svg>
