<svg xmlns="http://www.w3.org/2000/svg" id="prefix__Group_3881" width="36" height="36" data-name="Group 3881" viewBox="0 0 36 36">
    <defs>
        <style>
            .prefix__cls-4{stroke:#111}
        </style>
    </defs>
    <rect id="prefix__Rectangle_375" width="36" height="36" data-name="Rectangle 375" rx="4" style="fill:#fff;opacity:0"/>
    <g id="prefix___2928210" data-name="2928210" transform="translate(14.885 4.387)">
        <g id="prefix__Group_3866" data-name="Group 3866" transform="translate(-8.807 3.299)">
            <path id="prefix__Path_9719" d="M16.335 86.548a.3.3 0 0 1-.214-.518l4.094-4.094a.3.3 0 0 1 .429.429l-4.094 4.094a.3.3 0 0 1-.215.089z" data-name="Path 9719" transform="translate(-11.728 -68.488)" style="fill:#7c84e8"/>
            <path id="prefix__Path_9752" d="M4.825 0A4.825 4.825 0 1 1 0 4.825 4.825 4.825 0 0 1 4.825 0z" data-name="Path 9752" transform="rotate(-57.788 15.598 8.608)" style="stroke:#111;fill:none"/>
        </g>
        <g id="prefix__Group_3867" data-name="Group 3867" transform="translate(-4.503 2.996)">
            <path id="prefix__Path_9720" d="M49.681 11.683l-7.408-7.407a4.369 4.369 0 1 0-6.179 6.179l7.406 7.408a4.369 4.369 0 0 0 6.179-6.179zm-.429 5.751a3.768 3.768 0 0 1-5.322 0l-3.49-3.489-.429-.429-3.49-3.49A3.763 3.763 0 1 1 41.844 4.7l3.49 3.49.428.429 3.49 3.489a3.768 3.768 0 0 1 0 5.322z" class="prefix__cls-4" data-name="Path 9720" transform="translate(-31.56 -2.996)"/>
            <path id="prefix__Path_9724" d="M16.335 86.548a.3.3 0 0 0 .215-.089l4.094-4.094a.3.3 0 0 0-.429-.429l-4.094 4.094a.3.3 0 0 0 .214.518z" class="prefix__cls-4" data-name="Path 9724" transform="translate(-16.032 -68.185)"/>
        </g>
    </g>
</svg>
