<svg xmlns="http://www.w3.org/2000/svg" id="prefix__Group_3886" width="36" height="36" data-name="Group 3886" viewBox="0 0 36 36">
    <rect id="prefix__Rectangle_378" width="36" height="36" data-name="Rectangle 378" rx="4" style="fill:#fff;opacity:0"/>
    <g id="prefix__boxes" transform="translate(-16.068 -16.074)">
        <path id="prefix__Path_9727" d="M43.813 40.907h-.336v-7.942a.464.464 0 0 0-.464-.464h-4.192v-5.982a.464.464 0 0 0-.464-.464H31.91a.464.464 0 0 0-.464.464V32.5h-.562a.464.464 0 0 0-.464.464v7.943h-.305a2.91 2.91 0 0 0-1.327-1.327V24.942a1.262 1.262 0 0 0-1.26-1.26H24.94a1.26 1.26 0 1 0 0 2.52h1.327v13.367a2.894 2.894 0 1 0 3.857 3.859h13.69a1.26 1.26 0 1 0 0-2.52zm-7.335-7.479h.94v1.542l-.251-.134a.464.464 0 0 0-.438 0l-.251.134zm-1.6-6.446h.5v.893l-.033-.018a.464.464 0 0 0-.438 0l-.033.018zm-2.507 0h1.578v1.668a.465.465 0 0 0 .683.409l.5-.265.5.265a.464.464 0 0 0 .683-.409v-1.667h1.579V32.5h-5.52zm-1.024 6.448h4.2v2.317a.464.464 0 0 0 .684.409l.716-.383.716.383a.464.464 0 0 0 .683-.409v-2.318h4.2v7.479h-11.2zm-4.617-8.155h-1.79a.332.332 0 0 1 0-.663h2.587a.332.332 0 0 1 .332.332v14.361a2.673 2.673 0 0 0-.663 0V25.738a.464.464 0 0 0-.463-.464zm.784 18.872a1.968 1.968 0 1 1 1.969-1.969 1.968 1.968 0 0 1-1.969 1.969zm16.3-1.648H30.393a2.908 2.908 0 0 0 .019-.321 2.868 2.868 0 0 0-.022-.343h13.423a.332.332 0 0 1 0 .663z" data-name="Path 9727"/>
        <path id="prefix__Path_9728" d="M34.864 88.943a1.183 1.183 0 1 0 1.184 1.182 1.183 1.183 0 0 0-1.184-1.182zm0 1.437a.254.254 0 1 1 .181-.074.254.254 0 0 1-.181.074z" data-name="Path 9728" transform="translate(-7.348 -47.947)"/>
    </g>
</svg>
