<svg xmlns="http://www.w3.org/2000/svg" id="prefix__Group_3887" width="36" height="36" data-name="Group 3887" viewBox="0 0 36 36">
    <defs>
        <style>
            .prefix__cls-2{fill:none}.prefix__cls-3,.prefix__cls-4{stroke:none}
        </style>
    </defs>
    <rect id="prefix__Rectangle_376" width="36" height="36" data-name="Rectangle 376" rx="4" style="fill:#fff;opacity:0"/>
    <g id="prefix__food" transform="translate(8.543 8.844)">
        <g id="prefix__Group_3871" data-name="Group 3871" transform="translate(1.172)">
            <g id="prefix__Group_3870" data-name="Group 3870">
                <g id="prefix__Path_9743" class="prefix__cls-2" data-name="Path 9743">
                    <path d="M45.449 15.571L38.268 8.39 29.878 0h-.656l-.134.34A6.015 6.015 0 0 0 28.652 3a3.751 3.751 0 0 0 1.051 2.4l6.55 6.55.864-.864 6.055 6.771a1.61 1.61 0 1 0 2.277-2.277z" class="prefix__cls-3" transform="translate(-28.636)"/>
                    <path d="M44.315 17.314c.095 0 .277-.023.427-.173.115-.114.178-.268.178-.431 0-.164-.063-.317-.178-.432l-7.181-7.18-7.753-7.753c-.145.542-.2 1.076-.16 1.57.058.718.322 1.33.762 1.77l5.843 5.842.156-.156.748-.748.705.788 6.032 6.745c.108.1.26.158.42.158m0 1c-.42 0-.837-.16-1.142-.466l-6.055-6.77-.864.864-6.55-6.55c-.61-.61-.974-1.44-1.051-2.396-.068-.84.083-1.758.436-2.656l.134-.34h.656l8.39 8.39 7.181 7.181c.628.628.628 1.65 0 2.277-.314.315-.726.466-1.134.466z" class="prefix__cls-4" transform="translate(-28.636)"/>
                </g>
            </g>
        </g>
        <g id="prefix__Group_3873" data-name="Group 3873" transform="translate(.153 10.425)">
            <g id="prefix__Group_3872" data-name="Group 3872">
                <g id="prefix__Path_9744" class="prefix__cls-2" data-name="Path 9744">
                    <path d="M5.754 291.442l-5.13 5.13a1.61 1.61 0 0 0 2.276 2.277l5.13-5.13z" class="prefix__cls-3" transform="translate(-.153 -291.442)"/>
                    <path d="M5.754 292.856L1.33 297.28c-.115.115-.178.268-.178.431 0 .164.063.317.178.432.11.11.27.174.438.174.114 0 .28-.03.425-.174l4.423-4.423-.863-.863m0-1.414l2.277 2.277-5.13 5.13c-.318.318-.727.467-1.132.467-.423 0-.84-.163-1.145-.467-.628-.628-.628-1.65 0-2.277l5.13-5.13z" class="prefix__cls-4" transform="translate(-.153 -291.442)"/>
                </g>
            </g>
        </g>
        <g id="prefix__Group_3875" data-name="Group 3875" transform="translate(9.961 .013)">
            <g id="prefix__Group_3874" data-name="Group 3874">
                <g id="prefix__Path_9745" class="prefix__cls-2" data-name="Path 9745">
                    <path d="M282.076 3.4l-2.91 2.91-.759-.759 2.91-2.91-.759-.759-2.91 2.91-.759-.759 2.91-2.91-.759-.762-3.8 3.8a2.679 2.679 0 0 0-.781 1.736 1.547 1.547 0 0 1-.11.485l2.466 2.466a1.545 1.545 0 0 1 .485-.11 2.679 2.679 0 0 0 1.736-.781l3.8-3.8z" class="prefix__cls-3" transform="translate(-274.354 -.361)"/>
                    <path d="M276.13 4.685l-.178.179c-.291.29-.465.677-.49 1.088-.002.037-.005.073-.009.11l1.682 1.681.11-.009c.41-.024.797-.198 1.088-.49l.179-.178-.052-.052-.76-.759-.707-.707-.052-.052-.759-.759-.052-.052m2.91-4.324l.76.76-2.91 2.909.758.759 2.91-2.91.76.76-2.91 2.91.759.758 2.91-2.91.759.76-3.796 3.795c-.464.464-1.08.742-1.736.78-.166.01-.33.048-.484.11l-2.466-2.465c.062-.155.1-.319.11-.485.04-.655.316-1.271.78-1.736L279.04.361z" class="prefix__cls-4" transform="translate(-274.354 -.361)"/>
                </g>
            </g>
        </g>
    </g>
</svg>
