<svg xmlns="http://www.w3.org/2000/svg" id="prefix__Group_3885" width="36" height="36" data-name="Group 3885" viewBox="0 0 36 36">
    <defs>
        <style>
            .prefix__cls-2{fill:none}.prefix__cls-3,.prefix__cls-4{stroke:none}
        </style>
    </defs>
    <rect id="prefix__Rectangle_380" width="36" height="36" data-name="Rectangle 380" rx="4" style="fill:#fff;opacity:0"/>
    <g id="prefix___2957835" data-name="2957835" transform="translate(7.611 -49.913)">
        <g id="prefix__Path_9740" class="prefix__cls-2" data-name="Path 9740">
            <path d="M181 211h6.087v2.435H181z" class="prefix__cls-3" transform="translate(-173.655 -143.913)"/>
            <path d="M182 212v.435h4.087V212H182m-1-1h6.087v2.435H181V211z" class="prefix__cls-4" transform="translate(-173.655 -143.913)"/>
        </g>
        <g id="prefix__Path_9741" class="prefix__cls-2" data-name="Path 9741">
            <path d="M187.087 63.435h-.609a.609.609 0 0 1-.609-.609v-.609h1.217V61H181v1.217h1.217v.609a.609.609 0 0 1-.609.609H181v2.435h6.087z" class="prefix__cls-3" transform="translate(-173.655)"/>
            <path d="M183.217 62v.826c0 .752-.518 1.385-1.217 1.56v.483h4.087v-.482c-.699-.176-1.218-.809-1.218-1.561V62h-1.652M181 61h6.087v1.217h-1.218v.609c0 .336.273.609.61.609h.608v2.434H181v-2.434h.609c.336 0 .608-.273.608-.609v-.609H181V61z" class="prefix__cls-4" transform="translate(-173.655)"/>
        </g>
        <g id="prefix__Path_9742" class="prefix__cls-2" data-name="Path 9742">
            <path d="M15.866 152.826a5.478 5.478 0 0 1-10.956 0A8.68 8.68 0 0 1 5.168 151H0v3.652h1.452a9.13 9.13 0 0 0 1.328 3.2l-1 1 2.582 2.582 1-1a9.131 9.131 0 0 0 3.2 1.328v1.412h3.652v-1.412a9.13 9.13 0 0 0 3.2-1.328l1 1L19 158.852l-1-1a9.131 9.131 0 0 0 1.328-3.2h1.452V151h-5.172a8.664 8.664 0 0 1 .258 1.826z" class="prefix__cls-3" transform="translate(0 -86.348)"/>
            <path d="M1 152v1.652h1.268l.164.8c.209 1.02.607 1.977 1.182 2.848l.45.68-.576.578-.294.293 1.169 1.169.293-.293.578-.578.68.451c.87.576 1.83.973 2.849 1.182l.8.164v1.228h1.651v-1.228l.8-.164c1.02-.209 1.978-.606 2.848-1.182l.68-.45.578.577.294.293 1.168-1.169-.293-.293-.577-.577.45-.681c.576-.87.974-1.829 1.182-2.849l.164-.799h1.268V152h-2.963c.032.245.053.518.053.826 0 3.572-2.906 6.478-6.478 6.478-3.572 0-6.478-2.906-6.478-6.478 0-.312.021-.583.053-.826H1m-1-1h5.168c-.099.558-.258 1.037-.258 1.826 0 3.02 2.457 5.478 5.478 5.478s5.478-2.457 5.478-5.478c0-.797-.165-1.302-.258-1.826h5.168v3.652h-1.452c-.233 1.138-.685 2.228-1.328 3.2l1 1-2.582 2.582-1-1c-.972.643-2.062 1.095-3.2 1.328v1.412H8.562v-1.412c-1.138-.233-2.228-.685-3.199-1.328l-1 1-2.583-2.582 1-1c-.642-.972-1.095-2.062-1.328-3.2H0V151z" class="prefix__cls-4" transform="translate(0 -86.348)"/>
        </g>
    </g>
</svg>
