<svg xmlns="http://www.w3.org/2000/svg" id="prefix__Component_7_6" width="140" height="140" data-name="Component 7 – 6" viewBox="0 0 140 140">
    <defs>
        <style>
            .prefix__cls-2{fill:#fff}
        </style>
    </defs>
    <path id="prefix__Rectangle_343" d="M0 0H140V140H0z" data-name="Rectangle 343" style="fill:#2489ff"/>
    <g id="prefix__pay" transform="translate(30 34.418)">
        <path id="prefix__Path_7635" d="M80.209 237.315a5.978 5.978 0 0 0-5.936-4.27l-.575.024a6.625 6.625 0 0 0-4.464 1.991l-8.893 8.97a6.343 6.343 0 0 0-.728-.931 6.209 6.209 0 0 0-4.493-1.948H42.575a25.274 25.274 0 0 1-6.861-.929A16.622 16.622 0 0 0 20 243.576a23 23 0 0 0-4.177 4.591 5.56 5.56 0 0 0-7.276.739l-8.108 8.58a1.629 1.629 0 0 0 .028 2.259l6.524 6.555a1.556 1.556 0 0 0 2.23-.016 1.63 1.63 0 0 0-.016-2.273l-5.411-5.44 7.027-7.437a2.458 2.458 0 0 1 3.528-.061l12.537 12.4a2.573 2.573 0 0 1 .049 3.594l-6.905 7.222-1.777-1.725a1.555 1.555 0 0 0-2.229.056 1.629 1.629 0 0 0 .056 2.272l2.9 2.821a1.556 1.556 0 0 0 2.217-.042l7.993-8.36a5.774 5.774 0 0 0 1.6-4.095 5.853 5.853 0 0 0-.388-2.022l2.815-.334a33.7 33.7 0 0 1 3.95-.234h19.092c.292 0 .588-.012.879-.038l1.829-.155a10.472 10.472 0 0 0 5.168-1.9 10.669 10.669 0 0 0 2.021-1.87l12.862-15.425a6.344 6.344 0 0 0 1.191-5.923zm-3.593 3.849l-12.862 15.425a7.5 7.5 0 0 1-1.419 1.313 7.357 7.357 0 0 1-3.628 1.332l-1.83.155c-.2.017-.412.026-.617.026H37.172a36.854 36.854 0 0 0-4.314.254l-4.559.541-10.086-9.91a19.765 19.765 0 0 1 3.779-4.227 13.461 13.461 0 0 1 12.881-2.75 28.356 28.356 0 0 0 7.7 1.046H55.12a3.075 3.075 0 0 1 2.222.964 3.148 3.148 0 0 1 .8 1.572 1.613 1.613 0 0 0 .053.431 3.178 3.178 0 0 1-.672 2.146l-.049.062a3.048 3.048 0 0 1-2.405 1.176H44.15a1.607 1.607 0 0 0 0 3.214h10.921a6.163 6.163 0 0 0 4.865-2.38l.049-.062a6.417 6.417 0 0 0 1.368-3.957l10.1-10.192a3.515 3.515 0 0 1 2.369-1.059l.576-.024a2.81 2.81 0 0 1 2.8 2.011 3.1 3.1 0 0 1-.582 2.892zm0 0" class="prefix__cls-2" data-name="Path 7635" transform="translate(0 -205.83)"/>
        <path id="prefix__Path_7636" d="M70.086 394.566a4.352 4.352 0 1 0 4.352 4.352 4.357 4.357 0 0 0-4.352-4.352zm0 5.49a1.138 1.138 0 1 1 1.138-1.138 1.14 1.14 0 0 1-1.138 1.139zm0 0" class="prefix__cls-2" data-name="Path 7636" transform="translate(-57.307 -346.311)"/>
        <path id="prefix__Path_7637" d="M288.794 372.476l-.083.019a1.607 1.607 0 1 0 .735 3.128l.083-.019a1.607 1.607 0 1 0-.735-3.129zm0 0" class="prefix__cls-2" data-name="Path 7637" transform="translate(-251.347 -326.876)"/>
        <path id="prefix__Path_7638" d="M89.07 505.147l-.083.02a1.607 1.607 0 0 0 .736 3.129l.083-.019a1.607 1.607 0 0 0-.735-3.129zm0 0" class="prefix__cls-2" data-name="Path 7638" transform="translate(-76.498 -443.015)"/>
        <path id="prefix__Path_7639" d="M251.227 32.6a17.009 17.009 0 0 0 0-34.018A16.835 16.835 0 0 0 240.733 2.2a17.009 17.009 0 0 0 10.494 30.4zM239.253 8.737a13.881 13.881 0 0 1 3.465-4 13.656 13.656 0 0 1 8.51-2.937 13.788 13.788 0 1 1-11.975 6.941zm0 0" class="prefix__cls-2" data-name="Path 7639" transform="translate(-205.167)"/>
        <path id="prefix__Path_7640" d="M328.308 64.661a4.3 4.3 0 0 1-2.061.522c-1.084 0-2.034-1.277-2.034-2.732a1.607 1.607 0 0 0-3.214 0 5.862 5.862 0 0 0 3.978 5.77 1.605 1.605 0 0 0 3.208-.069 5.361 5.361 0 0 0 4.325-5.352c0-3.621-3.7-5.6-5.6-5.6-.024 0-2.383-.21-2.383-1.719a2.378 2.378 0 0 1 2.383-2.382 2.176 2.176 0 0 1 1.418.694c.206.206.228.228.228 1.094a1.607 1.607 0 0 0 3.214-.007 4.146 4.146 0 0 0-1.169-3.361 5.653 5.653 0 0 0-2.422-1.451 1.606 1.606 0 0 0-3.209.094v.105a5.329 5.329 0 0 0-3.657 5.214c0 3.682 3.827 4.927 5.586 4.932.483.039 2.394.885 2.394 2.383a1.943 1.943 0 0 1-.985 1.865zm0 0" class="prefix__cls-2" data-name="Path 7640" transform="translate(-280.757 -43.57)"/>
    </g>
</svg>
