<svg xmlns="http://www.w3.org/2000/svg" id="prefix__Group_3879" width="36" height="36" data-name="Group 3879" viewBox="0 0 36 36">
    <rect id="prefix__Rectangle_369" width="36" height="36" data-name="Rectangle 369" rx="4" style="fill:#fff;opacity:0"/>
    <g id="prefix___2878769" data-name="2878769" transform="translate(8.002 8.002)">
        <path id="prefix__Path_9706" d="M17.08 11.5a2.911 2.911 0 0 1-2.321-1.153 2.8 2.8 0 0 1-4.573-.07 3.123 3.123 0 0 1-4.926.04A2.915 2.915 0 0 1 0 8.582V4.625a.625.625 0 1 1 1.25 0v3.957a1.666 1.666 0 1 0 3.333 0V7.124a.625.625 0 0 1 1.25 0v1.25a1.875 1.875 0 1 0 3.749 0v-1.25a.625.625 0 1 1 1.25 0v1.25a1.781 1.781 0 0 0 1.668 1.875 1.781 1.781 0 0 0 1.666-1.875v-1.25a.625.625 0 1 1 1.25 0v1.458a1.666 1.666 0 1 0 3.333 0V4.625a.625.625 0 0 1 1.25 0v3.957A2.919 2.919 0 0 1 17.08 11.5z" data-name="Path 9706" transform="translate(0 -.667)"/>
        <path id="prefix__Path_9707" d="M16.04 22.5a.625.625 0 0 1-.625-.625v-4.584a1.043 1.043 0 0 0-1.041-1.041H7.291a1.043 1.043 0 0 0-1.041 1.041v4.582a.625.625 0 0 1-1.25 0v-4.582A2.293 2.293 0 0 1 7.291 15h7.082a2.293 2.293 0 0 1 2.291 2.291v4.582a.625.625 0 0 1-.624.627z" data-name="Path 9707" transform="translate(-.834 -2.502)"/>
        <path id="prefix__Path_9708" d="M19.371 5.25H.625a.625.625 0 1 1 0-1.25h18.746a.625.625 0 1 1 0 1.25z" data-name="Path 9708" transform="translate(0 -.667)"/>
        <path id="prefix__Path_9709" d="M17.7 20H2.291A2.293 2.293 0 0 1 0 17.7V3.958a.625.625 0 0 1 .066-.279L1.5.807A1.449 1.449 0 0 1 2.806 0H17.19a1.448 1.448 0 0 1 1.3.807l1.44 2.871a.631.631 0 0 1 .066.28V17.7A2.293 2.293 0 0 1 17.7 20zM1.25 4.105V17.7a1.043 1.043 0 0 0 1.041 1.041H17.7a1.043 1.043 0 0 0 1.046-1.041V4.105l-1.371-2.74a.205.205 0 0 0-.186-.115H2.806a.208.208 0 0 0-.187.114zm.812-3.019h.008z" data-name="Path 9709"/>
    </g>
</svg>
